<svg xmlns="http://www.w3.org/2000/svg" viewBox="0 0 960 340" font-family="ui-monospace, 'Cascadia Code', 'Source Code Pro', Menlo, Consolas, monospace" font-size="13">
  <defs>
    <linearGradient id="bg" x1="0%" y1="0%" x2="0%" y2="100%">
      <stop offset="0%" stop-color="#0d1117"/>
      <stop offset="100%" stop-color="#161b22"/>
    </linearGradient>
    <filter id="glow">
      <feGaussianBlur stdDeviation="2" result="blur"/>
      <feMerge><feMergeNode in="blur"/><feMergeNode in="SourceGraphic"/></feMerge>
    </filter>
  </defs>

  <!-- Background -->
  <rect width="960" height="340" rx="8" fill="url(#bg)"/>
  <rect x="1" y="1" width="958" height="338" rx="7" fill="none" stroke="#30363d" stroke-width="1"/>

  <!-- Title -->
  <text x="480" y="32" text-anchor="middle" fill="#e6edf3" font-size="16" font-weight="bold">spec  ──  plan  ──  build  ──  ship</text>
  <text x="480" y="50" text-anchor="middle" fill="#7d8590" font-size="11">The RDF development pipeline</text>

  <!-- Stage 1: Spec -->
  <rect x="30" y="70" width="210" height="170" rx="6" fill="#161b22" stroke="#a371f7" stroke-width="1.5"/>
  <rect x="30" y="70" width="210" height="28" rx="6" fill="#a371f7" fill-opacity="0.15"/>
  <text x="135" y="89" text-anchor="middle" fill="#a371f7" font-weight="bold" font-size="14">/r:spec</text>
  <text x="45" y="115" fill="#7d8590" font-size="11">1. Discover</text>
  <text x="45" y="133" fill="#7d8590" font-size="11">2. Brainstorm + Research</text>
  <text x="45" y="151" fill="#7d8590" font-size="11">3. Write Spec</text>
  <text x="45" y="169" fill="#7d8590" font-size="11">4. Challenge Review</text>
  <line x1="45" y1="182" x2="225" y2="182" stroke="#30363d" stroke-width="0.5"/>
  <text x="45" y="200" fill="#e6edf3" font-size="11">Agent: planner (opus)</text>
  <text x="45" y="218" fill="#58a6ff" font-size="11">Output: docs/specs/*.md</text>

  <!-- Arrow 1 -->
  <line x1="245" y1="155" x2="270" y2="155" stroke="#a371f7" stroke-width="1.5" filter="url(#glow)"/>
  <polygon points="270,150 280,155 270,160" fill="#a371f7"/>

  <!-- Stage 2: Plan -->
  <rect x="280" y="70" width="210" height="170" rx="6" fill="#161b22" stroke="#3fb950" stroke-width="1.5"/>
  <rect x="280" y="70" width="210" height="28" rx="6" fill="#3fb950" fill-opacity="0.15"/>
  <text x="385" y="89" text-anchor="middle" fill="#3fb950" font-weight="bold" font-size="14">/r:plan</text>
  <text x="295" y="115" fill="#7d8590" font-size="11">1. Read Spec + Codebase</text>
  <text x="295" y="133" fill="#7d8590" font-size="11">2. Decompose into Phases</text>
  <text x="295" y="151" fill="#7d8590" font-size="11">3. Write PLAN.md</text>
  <text x="295" y="169" fill="#7d8590" font-size="11">4. Challenge Review</text>
  <line x1="295" y1="182" x2="475" y2="182" stroke="#30363d" stroke-width="0.5"/>
  <text x="295" y="200" fill="#e6edf3" font-size="11">Agent: planner (opus)</text>
  <text x="295" y="218" fill="#58a6ff" font-size="11">Output: PLAN.md</text>

  <!-- Arrow 2 -->
  <line x1="495" y1="155" x2="520" y2="155" stroke="#3fb950" stroke-width="1.5" filter="url(#glow)"/>
  <polygon points="520,150 530,155 520,160" fill="#3fb950"/>

  <!-- Stage 3: Build -->
  <rect x="530" y="70" width="210" height="170" rx="6" fill="#161b22" stroke="#58a6ff" stroke-width="1.5"/>
  <rect x="530" y="70" width="210" height="28" rx="6" fill="#58a6ff" fill-opacity="0.15"/>
  <text x="635" y="89" text-anchor="middle" fill="#58a6ff" font-weight="bold" font-size="14">/build</text>
  <text x="545" y="115" fill="#7d8590" font-size="11">Per phase:</text>
  <text x="555" y="133" fill="#7d8590" font-size="11">Engineer implements (TDD)</text>
  <text x="555" y="151" fill="#7d8590" font-size="11">QA verifies</text>
  <text x="555" y="169" fill="#7d8590" font-size="11">Reviewer audits</text>
  <line x1="545" y1="182" x2="725" y2="182" stroke="#30363d" stroke-width="0.5"/>
  <text x="545" y="200" fill="#e6edf3" font-size="11">Agents: dispatcher + team</text>
  <text x="545" y="218" fill="#58a6ff" font-size="11">Output: committed code</text>

  <!-- Arrow 3 -->
  <line x1="745" y1="155" x2="770" y2="155" stroke="#58a6ff" stroke-width="1.5" filter="url(#glow)"/>
  <polygon points="770,150 780,155 770,160" fill="#58a6ff"/>

  <!-- Stage 4: Ship -->
  <rect x="780" y="70" width="150" height="170" rx="6" fill="#161b22" stroke="#f0883e" stroke-width="1.5"/>
  <rect x="780" y="70" width="150" height="28" rx="6" fill="#f0883e" fill-opacity="0.15"/>
  <text x="855" y="89" text-anchor="middle" fill="#f0883e" font-weight="bold" font-size="14">/r:ship</text>
  <text x="795" y="115" fill="#7d8590" font-size="11">1. Preflight</text>
  <text x="795" y="133" fill="#7d8590" font-size="11">2. Verification</text>
  <text x="795" y="151" fill="#7d8590" font-size="11">3. Release Prep</text>
  <text x="795" y="169" fill="#7d8590" font-size="11">4. Publish</text>
  <line x1="795" y1="182" x2="915" y2="182" stroke="#30363d" stroke-width="0.5"/>
  <text x="795" y="200" fill="#e6edf3" font-size="11">Agents: qa + reviewer</text>
  <text x="795" y="218" fill="#58a6ff" font-size="11">Output: PR + tag</text>

  <!-- Quality Gates Bar -->
  <rect x="30" y="260" width="900" height="60" rx="6" fill="#161b22" stroke="#30363d" stroke-width="1"/>
  <text x="480" y="280" text-anchor="middle" fill="#e6edf3" font-size="12" font-weight="bold">Quality Gates</text>
  <text x="120" y="302" text-anchor="middle" fill="#7d8590" font-size="11">G1: Self-report</text>
  <text x="310" y="302" text-anchor="middle" fill="#d2a8ff" font-size="11">G2: QA verification</text>
  <text x="530" y="302" text-anchor="middle" fill="#ffa657" font-size="11">G3: Reviewer sentinel</text>
  <text x="750" y="302" text-anchor="middle" fill="#79c0ff" font-size="11">G4: UAT acceptance</text>

  <!-- Gate dots -->
  <circle cx="55" cy="300" r="4" fill="#3fb950"/>
  <circle cx="245" cy="300" r="4" fill="#d2a8ff"/>
  <circle cx="465" cy="300" r="4" fill="#ffa657"/>
  <circle cx="680" cy="300" r="4" fill="#79c0ff"/>
</svg>
